<mxfile host="app.diagrams.net" modified="2021-09-30T13:13:54.624Z" agent="5.0 (Windows NT 10.0; Win64; x64) AppleWebKit/537.36 (KHTML, like Gecko) Chrome/94.0.4606.61 Safari/537.36" etag="aWCVFqmR_6s4C9U2RxXi" version="15.3.8" type="github">
  <diagram id="Y9sp35oUX_WYPwsPaZgL" name="Page-1">
    <mxGraphModel dx="1888" dy="556" grid="1" gridSize="10" guides="1" tooltips="1" connect="1" arrows="1" fold="1" page="1" pageScale="1" pageWidth="850" pageHeight="1100" math="0" shadow="0">
      <root>
        <mxCell id="0" />
        <mxCell id="1" parent="0" />
        <mxCell id="r8yxXnuiQZk5SVG_cQbu-1" value="" style="endArrow=none;html=1;" edge="1" parent="1">
          <mxGeometry width="50" height="50" relative="1" as="geometry">
            <mxPoint x="-20" y="260" as="sourcePoint" />
            <mxPoint x="680" y="260" as="targetPoint" />
          </mxGeometry>
        </mxCell>
        <mxCell id="r8yxXnuiQZk5SVG_cQbu-2" value="Customer Relationship Management System" style="ellipse;whiteSpace=wrap;html=1;" vertex="1" parent="1">
          <mxGeometry x="680" y="210" width="140" height="100" as="geometry" />
        </mxCell>
        <mxCell id="r8yxXnuiQZk5SVG_cQbu-3" value="" style="endArrow=none;html=1;" edge="1" parent="1" target="r8yxXnuiQZk5SVG_cQbu-4">
          <mxGeometry width="50" height="50" relative="1" as="geometry">
            <mxPoint x="600" y="260" as="sourcePoint" />
            <mxPoint x="580" y="260" as="targetPoint" />
          </mxGeometry>
        </mxCell>
        <mxCell id="r8yxXnuiQZk5SVG_cQbu-4" value="Tracking Customer&#39;s Information" style="rounded=0;whiteSpace=wrap;html=1;" vertex="1" parent="1">
          <mxGeometry x="440" y="20" width="120" height="60" as="geometry" />
        </mxCell>
        <mxCell id="r8yxXnuiQZk5SVG_cQbu-5" value="" style="endArrow=none;html=1;" edge="1" parent="1">
          <mxGeometry width="50" height="50" relative="1" as="geometry">
            <mxPoint x="547" y="150" as="sourcePoint" />
            <mxPoint x="717" y="60" as="targetPoint" />
          </mxGeometry>
        </mxCell>
        <mxCell id="r8yxXnuiQZk5SVG_cQbu-6" value="Search" style="text;html=1;strokeColor=none;fillColor=none;align=center;verticalAlign=middle;whiteSpace=wrap;rounded=0;" vertex="1" parent="1">
          <mxGeometry x="720" y="35" width="60" height="30" as="geometry" />
        </mxCell>
        <mxCell id="r8yxXnuiQZk5SVG_cQbu-7" value="" style="endArrow=none;html=1;" edge="1" parent="1">
          <mxGeometry width="50" height="50" relative="1" as="geometry">
            <mxPoint x="689" y="74" as="sourcePoint" />
            <mxPoint x="759" y="104" as="targetPoint" />
          </mxGeometry>
        </mxCell>
        <mxCell id="r8yxXnuiQZk5SVG_cQbu-8" value="name search" style="text;html=1;strokeColor=none;fillColor=none;align=center;verticalAlign=middle;whiteSpace=wrap;rounded=0;" vertex="1" parent="1">
          <mxGeometry x="760" y="110" width="80" height="20" as="geometry" />
        </mxCell>
        <mxCell id="r8yxXnuiQZk5SVG_cQbu-9" value="" style="endArrow=none;html=1;" edge="1" parent="1">
          <mxGeometry width="50" height="50" relative="1" as="geometry">
            <mxPoint x="620" y="110" as="sourcePoint" />
            <mxPoint x="690" y="140" as="targetPoint" />
          </mxGeometry>
        </mxCell>
        <mxCell id="r8yxXnuiQZk5SVG_cQbu-10" value="email search" style="text;html=1;strokeColor=none;fillColor=none;align=center;verticalAlign=middle;whiteSpace=wrap;rounded=0;" vertex="1" parent="1">
          <mxGeometry x="690" y="146" width="79" height="20" as="geometry" />
        </mxCell>
        <mxCell id="r8yxXnuiQZk5SVG_cQbu-13" value="" style="endArrow=none;html=1;" edge="1" parent="1">
          <mxGeometry width="50" height="50" relative="1" as="geometry">
            <mxPoint x="576" y="210" as="sourcePoint" />
            <mxPoint x="416" y="163.5" as="targetPoint" />
          </mxGeometry>
        </mxCell>
        <mxCell id="r8yxXnuiQZk5SVG_cQbu-15" value="Manage Customer" style="text;html=1;strokeColor=none;fillColor=none;align=center;verticalAlign=middle;whiteSpace=wrap;rounded=0;" vertex="1" parent="1">
          <mxGeometry x="385" y="140" width="40" height="20" as="geometry" />
        </mxCell>
      </root>
    </mxGraphModel>
  </diagram>
</mxfile>
